<?xml version="1.0" standalone="no"?>
<!DOCTYPE svg PUBLIC "-//W3C//DTD SVG 1.1//EN" "http://www.w3.org/Graphics/SVG/1.1/DTD/svg11.dtd" >
<!--
2013-9-30: Created.
-->
<svg>
<metadata>
Created by iconfont
</metadata>
<defs>

<font id="iconfont" horiz-adv-x="1024" >
  <font-face
    font-family="iconfont"
    font-weight="500"
    font-stretch="normal"
    units-per-em="1024"
    ascent="896"
    descent="-128"
  />
    <missing-glyph />
    
    <glyph glyph-name="mima" unicode="&#58895;" d="M524.142933 97.956267M302.318933 381.749333l-34.133333 0L268.1856 547.5008C268.1856 688.642133 383.010133 803.466667 524.142933 803.466667s255.957333-114.824533 255.957333-255.965867l0-165.7344-34.133333 0L745.966933 547.5008C745.966933 669.8176 646.459733 769.333333 524.142933 769.333333S302.318933 669.8176 302.318933 547.5008L302.318933 381.749333zM524.142933 424.433067M524.142933 424.416M609.314133 146.007467c0 47.035733-38.135467 85.1712-85.162667 85.1712-47.044267 0-85.1712-38.144-85.1712-85.1712 0-33.655467 19.694933-62.4896 48.042667-76.3136l0-74.4448c0-16.853333 16.622933-30.506667 37.137067-30.506667 20.497067 0 37.12 13.661867 37.12 30.506667l0 74.4448C589.636267 83.517867 609.314133 112.352 609.314133 146.007467zM524.151467-46.6496c-26.752 0-48.520533 18.798933-48.520533 41.898667l0 67.618133c-29.815467 17.3056-48.042667 48.5376-48.042667 83.140267 0 53.239467 43.3152 96.5632 96.5632 96.5632 53.230933 0 96.546133-43.323733 96.546133-96.5632 0-34.602667-18.235733-65.834667-48.034133-83.140267l0-67.618133C572.663467-27.850667 550.903467-46.6496 524.151467-46.6496zM524.151467 219.7952c-40.686933 0-73.787733-33.1008-73.787733-73.7792 0-28.2368 15.965867-53.546667 41.6512-66.082133l6.4-3.106133 0-81.570133c0-10.368 11.784533-19.114667 25.745067-19.114667 13.952 0 25.736533 8.746667 25.736533 19.114667l0 81.570133 6.4 3.106133c25.685333 12.535467 41.634133 37.853867 41.634133 66.082133C597.9136 186.6944 564.8128 219.7952 524.151467 219.7952zM926.754133-203.466667 121.540267-203.466667c-23.594667 0-42.794667 16.733867-42.794667 37.2992L78.7456 362.097067c0 20.5568 19.2 37.290667 42.794667 37.290667l805.213867 0c23.6032 0 42.8032-16.725333 42.8032-37.290667l0-528.264533C969.5488-186.7328 950.3488-203.466667 926.754133-203.466667zM109.141333-172.388267l830.011733 0L939.153067 368.309333 109.141333 368.309333 109.141333-172.388267z"  horiz-adv-x="1024" />

    
    <glyph glyph-name="yonghu" unicode="&#58896;" d="M526.342878 812c-275.400205 0-498.656743-223.256538-498.656743-498.656743s223.256538-498.657764 498.656743-498.657764c275.400205 0 498.656743 223.257559 498.656743 498.657764C1024.999621 588.742441 801.743083 812 526.342878 812zM526.342878-147.020545c-254.250918 0-460.363802 206.110841-460.363802 460.36176 0 254.25296 206.110841 460.363802 460.363802 460.363802 254.251939 0 460.36176-206.110841 460.36176-460.363802C986.705659 59.090296 780.593796-147.020545 526.342878-147.020545zM774.523574 149.972088c-13.746577 32.713851-33.422469 62.091888-58.482429 87.31726-25.071191 25.235582-54.271563 45.050339-86.79958 58.900043-2.676207 1.137465-5.368751 2.230003-8.069464 3.280677 11.229656 6.995306 21.737419 15.339436 31.307847 24.97419 32.411616 32.627061 50.263889 75.995708 50.263889 122.119185 0 46.122456-17.850231 89.492125-50.263889 122.118164-32.452459 32.665861-75.613831 50.654956-121.52799 50.654956s-89.072468-17.990116-121.525947-50.655977c-32.414679-32.627061-50.265931-75.995708-50.265931-122.118164 0-46.122456 17.850231-89.492125 50.265931-122.119185 7.904052-7.956126 16.44729-15.03618 25.507185-21.203403-6.19275-2.120749-12.327299-4.471237-18.391394-7.051464-32.524954-13.848683-61.728389-33.664461-86.797538-58.902086-25.060981-25.22333-44.736873-54.601366-58.48345-87.315217-14.232603-33.868674-21.448458-69.836654-21.448458-106.894109l0-22.120318 546.158656 0 0 22.120318C795.972032 80.136456 788.757198 116.103415 774.523574 149.972088zM395.436421 447.745835c0 36.249794 14.161129 70.323701 39.877632 95.941161 25.67464 25.576618 59.798579 39.663209 96.087173 39.663209 36.286552 0 70.411512-14.086591 96.086152-39.663209 25.714461-25.61746 39.877632-59.690347 39.877632-95.941161s-14.163171-70.324722-39.877632-95.943203c-25.67464-25.577639-59.797558-39.66423-96.086152-39.66423-36.288594 0-70.414576 14.086591-96.087173 39.66423C409.598571 377.421113 395.436421 411.49502 395.436421 447.745835zM288.410595 61.070138c2.279014 25.215161 6.409215 44.404006 15.853031 67.785337 11.982179 29.661892 29.14115 56.303479 50.99497 79.18551 44.901264 47.008739 104.588547 69.358796 168.067039 69.358796 63.479513 0 123.165775-25.298888 168.067039-72.307627 21.854841-22.88101 39.01177-46.572745 50.99497-76.233616 9.444837-23.38031 13.575038-45.519007 15.853031-70.732126L288.409574 58.126412 288.410595 61.070138 288.410595 61.070138z"  horiz-adv-x="1025" />

    
    <glyph glyph-name="account" unicode="&#58897;" d="M793.6 579.009c0 163.287-131.807 295.658-294.4 295.658-162.593 0-294.4-132.371-294.4-295.658 0-163.287 131.807-295.658 294.4-295.658 162.593 0 294.4 132.371 294.4 295.658zM256 579.009c0 134.89 108.884 244.239 243.2 244.239s243.2-109.35 243.2-244.239c0-134.89-108.884-244.239-243.2-244.239-134.316 0-243.2 109.35-243.2 244.239zM0-102.291v-25.709h1024v25.709c0 230.828-236.909 437.060-512 437.060-16.552 0-33.011-0.67-49.339-2.002-14.092-1.149 22.595-13.554 23.739-27.706 14.95 1.219 10.431-21.711 25.6-21.711 248.311 0 460.8-184.974 460.8-385.641l25.6 25.709h-972.8l25.6-25.709c0 136.533 85.814 261.345 224.064 330.852 12.643 6.356 17.761 21.802 11.432 34.498-6.329 12.697-21.709 17.837-34.352 11.48-154.762-77.808-252.344-219.736-252.344-376.83z"  horiz-adv-x="1024" />

    
    <glyph glyph-name="user" unicode="&#58995;" d="M703.4-99.074c-3.519 0-7.078 0.992-10.24 3.067-30.289 19.876-80.136 25.263-97.079 25.679h-22.12l-35.288-0.271c-0.048 0-0.095 0-0.143 0l-445.79-0c-10.326 0-18.697 8.371-18.697 18.697v22.468c-0.318 6.267-0.911 40.604 21.004 78.307 13.716 23.598 33.431 43.861 58.599 60.226 30.494 19.829 69.116 33.909 114.797 41.849 0.233 0.040 0.467 0.076 0.701 0.107 0.347 0.047 35.5 4.859 71.209 14.273 61.895 16.318 67.308 30.743 67.346 30.884 0.364 1.431 0.894 2.804 1.573 4.095 0.508 2.699 1.764 12.859-0.638 40.080-6.101 69.137-42.12 109.995-71.061 142.826-9.128 10.355-17.749 20.134-24.387 29.723-28.64 41.372-31.297 88.417-31.396 90.399-0.015 0.311-0.023 0.622-0.023 0.933 0 18.78 9.363 27.418 17.624 35.041l0.434 0.401c0.271 0.251 0.442 0.437 0.542 0.557 0.093 1.341-0.567 4.743-1.013 7.041-0.17 0.874-0.34 1.751-0.501 2.633-7.18 38.982-7.671 99.192-1.176 137.837 2.41 50.813 46.225 89.711 48.106 91.357 0.072 0.062 0.143 0.124 0.215 0.185 6.29 5.339 12.672 11.169 16.728 17.637 0.487 0.776 0.828 1.377 1.066 1.837-0.305 0.787-0.742 1.794-1.095 2.608-2.436 5.619-6.118 14.109-4.024 25.024 1.264 6.589 6.078 18.362 24.118 23.174 7.261 1.937 15.022 2.333 20.689 2.622l1.123 0.058c22.39 1.179 46.273 2.177 70.435 0.324 174.731-13.396 234.92-78.686 237.397-81.459 0.14-0.156 0.276-0.314 0.409-0.475 13.987-16.757 24.348-37.635 30.796-62.055 2.015-7.62 3.309-14.016 4.063-20.072 6.103-35.465 5.085-71.905 3.782-96.27-0.733-13.675-2.257-28.030-4.8-45.176-0.692-4.656 0.069-5.565 0.355-5.907 0.758-0.907 1.686-1.892 2.668-2.935 3.863-4.099 9.152-9.713 11.964-18.721 1.41-4.503 2.069-9.36 2.069-15.268 0-0.311-0.008-0.622-0.023-0.933-0.099-1.982-2.756-49.027-31.395-90.398-6.639-9.59-15.26-19.369-24.387-29.723-28.942-32.83-64.961-73.689-71.061-142.828-2.402-27.221-1.145-37.379-0.638-40.080 0.678-1.291 1.209-2.665 1.573-4.094 0.037-0.141 5.472-14.614 67.649-30.964 35.705-9.389 70.558-14.146 70.906-14.193 0.304-0.041 0.607-0.090 0.909-0.145 46.096-8.55 84.957-22.992 115.506-42.924 25.252-16.476 44.93-36.702 58.489-60.114 21.502-37.129 20.627-70.715 20.196-77.444v-22.333c0-10.326-8.371-18.697-18.697-18.697l-176.884-0c-10.326 0-18.697 8.371-18.697 18.697s8.371 18.697 18.697 18.697h158.189v4.311c0 0.687 0.009 1.106 0.082 1.769 0.104 1.508 1.627 28.332-16.349 58.131-10.82 17.938-26.59 33.609-46.87 46.581-26.1 16.693-59.762 28.968-100.053 36.483-4.64 0.643-39.013 5.565-75.081 15.060-70.762 18.629-87.964 39.353-93.189 54.396-4.004 7.766-6.245 23.195-2.985 60.153 7.181 81.369 49.42 129.282 80.261 164.268 8.747 9.922 16.301 18.491 21.693 26.28 21.12 30.511 24.438 66.3 24.765 70.606-0.033 2.252-0.261 3.223-0.362 3.55-0.249 0.798-1.897 2.547-3.49 4.239-1.25 1.327-2.668 2.833-4.136 4.587-7.95 9.504-10.783 21.079-8.66 35.385 2.368 15.961 3.781 29.206 4.449 41.684 1.951 36.502 0.914 63.748-3.364 88.341-0.057 0.326-0.105 0.655-0.145 0.983-0.531 4.438-1.531 9.354-3.148 15.469-4.987 18.884-12.727 34.771-23.007 47.233-1.714 1.748-15.385 15.125-45.883 29.676-54.883 26.183-120.791 35.849-166.417 39.348-21.935 1.681-44.442 0.733-65.614-0.383l-1.179-0.060c-1.766-0.090-4.736-0.241-7.558-0.526 2.448-5.841 5.453-14.632 2.296-25.136-1.185-3.94-3.003-7.792-5.723-12.129-6.732-10.733-15.924-19.236-24.055-26.145-1.597-1.442-34.223-31.356-35.351-65.738-0.029-0.87-0.118-1.737-0.267-2.594-5.972-34.304-5.569-90.781 0.898-125.894 0.14-0.765 0.289-1.526 0.436-2.283 1.98-10.205 5.295-27.284-10.88-42.202l-0.435-0.402c-2.087-1.925-4.944-4.561-5.416-5.469v0c0.003 0-0.133-0.427-0.165-1.584 0.328-4.296 3.654-40.060 24.764-70.555 5.392-7.788 12.946-16.357 21.693-26.28 30.841-34.985 73.079-82.899 80.26-164.266 3.26-36.959 1.019-52.388-2.985-60.154-5.226-15.043-22.428-35.767-93.189-54.396-36.365-9.574-71.006-14.497-75.189-15.074-39.834-6.958-73.196-18.883-99.16-35.445-20.186-12.876-35.971-28.599-46.92-46.732-18.282-30.282-17.133-57.861-17.055-59.336 0.050-0.543 0.054-0.868 0.054-1.434v-4.309l462.299 0.271c0.047 0 0.095 0 0.143 0h22.424c0.141 0 0.28-0.001 0.422-0.005 2.896-0.064 71.446-1.943 116.95-31.803 8.634-5.665 11.039-17.255 5.374-25.889-3.594-5.475-9.564-8.444-15.652-8.444zM631.467 206.124c0.454-0.368 0.89-0.757 1.306-1.165-0.394 0.387-0.829 0.778-1.306 1.165zM414.042 206.124c-0.472-0.383-0.902-0.769-1.292-1.152 0.411 0.402 0.843 0.787 1.292 1.152z"  horiz-adv-x="1024" />

    
    <glyph glyph-name="yonghu1" unicode="&#58917;" d="M856.458 33.068c0-8.667-2.166-8.021-1.338-25.676 0-19.251-23.539-16.85-23.539 0v25.676c0 154.421-186.859 255.667-266.584 282.424 81.268 24.603 165.467 126.853 165.467 231.081 0 103.029-88.502 205.401-218.465 205.401-129.962 0-216.83-101.057-216.83-205.403 0-103.143 84.579-204.815 163.845-231.076-77.453-24.885-266.597-129.344-266.597-282.424v-25.676c0-16.85-24.877-24.068-24.877 0v25.676c0 132.543 117.307 238.94 238.477 282.424-76.161 46.145-134.108 142.035-134.108 231.081 0 127.617 108.392 229.497 240.096 229.497 131.704 0 241.715-101.881 241.715-229.497 0-89.045-59.565-184.936-135.725-231.081 121.174-43.485 238.463-149.881 238.463-282.424v0zM856.458 33.068z"  horiz-adv-x="1024" />

    
    <glyph glyph-name="confirmpwd" unicode="&#58899;" d="M883.846-94.508h-746.245c-34.291 0-62.187 27.936-62.187 62.187v442.275c0 34.332 27.894 62.188 62.187 62.188h746.245c34.331 0 62.187-27.856 62.187-62.187v-442.275c0-34.253-27.856-62.188-62.187-62.188zM137.601 430.682c-11.415 0-20.726-9.23-20.726-20.729v-442.273c0-11.417 9.312-20.729 20.726-20.729h746.245c11.417 0 20.726 9.312 20.726 20.729v442.272c0 11.499-9.312 20.729-20.726 20.729h-746.245zM776.719 440.884c-11.417 0-20.731 9.309-20.731 20.73v114.091c0 135.302-110.039 245.346-245.265 245.346s-245.346-110.043-245.346-245.347v-114.090c0-11.42-9.233-20.73-20.731-20.73-11.417 0-20.729 9.309-20.729 20.73v114.091c0 158.139 128.667 286.802 286.805 286.802s286.724-128.663 286.724-286.803v-114.090c0-11.42-9.23-20.73-20.729-20.73zM682.224 336.994l-238.465-238.383-94.454 94.496-36.722-36.679 94.494-94.496-0.041-0.080 36.64-36.683 275.227 275.147z"  horiz-adv-x="1024" />

    
    <glyph glyph-name="mima1" unicode="&#58900;" d="M510.89519378 864.59070449c-138.10077715 0-242.50496468-109.92821862-242.50496468-255.76263928v-90.04170671h-7.73364352c-72.36480723 0-131.47193985-60.76434194-131.47193985-135.33876162v-345.25194287c0-74.57441966 59.10713263-135.33876161 131.47193985-135.33876162h502.13442573c72.36480723 0 131.47193985 60.76434194 131.47193985 135.33876162V384c0 74.57441966-59.10713263 135.33876161-131.47193985 135.33876161h-4.41922487c-1.10480622 0.55240312-2.20961243 0.55240312-3.31441865 0.55240311V608.82806521C755.05736779 754.66248588 650.10077715 864.59070449 510.89519378 864.59070449z m0-40.32542692c118.21426525 0 204.38915019-90.59410982 204.38915019-215.43721236v-88.38449737H308.71565603v88.38449737c0 124.84310254 85.07007873 215.43721236 202.17953775 215.43721236zM854.48992734 384v-345.25194289c0-52.47829532-40.87783004-95.01333468-91.69891603-95.01333468H260.65658558c-50.26868289 0-91.69891603 42.53503935-91.69891602 95.01333468V384c0 52.47829532 40.87783004 95.01333468 91.69891602 95.01333468h502.13442573c50.82108599 0 91.69891603-42.53503935 91.69891603-95.01333468zM702.57907247 344.77937928999995l-233.11411182-226.48527454-102.74697822 106.06139686c-11.60046528 11.60046528-29.82976787 12.15286839-41.98263626 0.55240311-11.60046528-11.60046528-12.15286839-29.82976787-0.55240309-41.98263626l123.18589321-127.05271498c11.60046528-11.60046528 29.82976787-12.15286839 41.98263625-0.5524031l254.65783307 246.92418955c11.60046528 11.60046528 12.15286839 29.82976787 0.55240312 41.98263624-11.60046528 11.60046528-30.38217097 11.60046528-41.98263626 0.55240312z"  horiz-adv-x="1024" />

    
    <glyph glyph-name="mima2" unicode="&#58901;" d="M838.978053 448.159252L182.846398 448.159252c-39.531342 0-71.578222-32.04688-71.578222-71.578222l0-432.174953c0-39.531342 32.04688-71.578222 71.578222-71.578222l656.130631 0c39.531342 0 71.578222 32.04688 71.578222 71.578222L910.555252 376.58103000000006C910.555252 416.112372 878.509395 448.159252 838.978053 448.159252zM881.548614-26.58626300000003c0-39.531342-32.04688-71.578222-71.578222-71.578222L211.853036-98.16448400000002c-39.531342 0-71.578222 32.04688-71.578222 71.578222L140.274814 347.57336899999996c0 39.531342 32.04688 71.578222 71.578222 71.578222L809.971415 419.151591c39.531342 0 71.578222-32.04688 71.578222-71.578222L881.549637-26.58626300000003zM212.377992 576.071504l29.006637 0 0-127.913275-29.006637 0 0 127.913275ZM510.912226 845.600123c148.856259 0 269.52862-120.67236 269.52862-269.52862l29.006637 0c0 164.876118-133.658116 298.534234-298.534234 298.534234S212.377992 740.947622 212.377992 576.071504l29.006637 0C241.383606 724.927763 362.055966 845.600123 510.912226 845.600123z"  horiz-adv-x="1024" />

    
    <glyph glyph-name="mima3" unicode="&#58907;" d="M535.296 360.298667v-237.034667a23.274667 23.274667 0 1 0-46.592 0V360.298667c0 13.269333 10.24 23.701333 23.296 23.701333s23.296-10.432 23.296-23.701333zM853.333333 512h-42.666666c0 164.672-133.994667 298.666667-298.666667 298.666667s-298.666667-133.994667-298.666667-298.666667H170.666667c-47.061333 0-85.333333-38.272-85.333334-85.333333v-384c0-47.061333 38.272-85.333333 85.333334-85.333334h682.666666c47.061333 0 85.333333 38.272 85.333334 85.333334V426.666667c0 47.061333-38.272 85.333333-85.333334 85.333333zM512 764.714667c139.328 0 252.714667-113.365333 252.714667-252.714667H259.285333c0 139.349333 113.365333 252.714667 252.714667 252.714667zM896 42.666667c0-23.530667-19.136-42.666667-42.666667-42.666667H170.666667c-23.530667 0-42.666667 19.136-42.666667 42.666667V426.666667c0 23.530667 19.136 42.666667 42.666667 42.666666h682.666666c23.530667 0 42.666667-19.136 42.666667-42.666666v-384z"  horiz-adv-x="1024" />

    
    <glyph glyph-name="yonghu2" unicode="&#58923;" d="M511.991965 896a511.991965 511.991965 0 1 1 511.991966-511.991965A511.975896 511.975896 0 0 1 511.991965 896z m0-42.663319a469.055473 469.055473 0 0 0 360.862582-769.064574c-46.776995 19.523892-157.26776 57.848568-225.609416 78.063429-5.849133 1.84794-6.765069 2.121114-6.765068 26.417512a140.009604 140.009604 0 0 0 16.294013 57.302221 293.710035 293.710035 0 0 1 22.769839 77.790255 175.425783 175.425783 0 0 1 33.568239 81.06834c8.034523 39.899443 4.242228 54.425861-1.044488 68.020275-0.562417 1.446214-1.124833 2.844221-1.606905 4.274366a446.719498 446.719498 0 0 0 7.568521 95.675104 175.152609 175.152609 0 0 1-36.862393 126.415191c-22.496665 28.763594-65.545641 64.067289-144.171487 68.984417h-43.129321c-77.308184-4.820714-120.373229-40.172617-142.853825-68.952279a175.345437 175.345437 0 0 1-36.814186-126.415191 447.780055 447.780055 0 0 0 7.648866-95.514413 30.659741 30.659741 0 0 0-1.606905-4.435057c-5.238509-13.642621-8.998666-28.136901-0.996281-68.020275a174.558054 174.558054 0 0 1 33.568239-81.06834 290.849745 290.849745 0 0 1 22.769839-77.790255 138.531251 138.531251 0 0 0 9.368254-58.186018c0-24.296399-0.915936-24.569572-6.427618-26.288961-70.703805-20.889761-183.187132-61.544449-225.20769-79.911369A468.975128 468.975128 0 0 0 511.895551 853.368819zM184.311965 48.438133c48.062519 19.604237 143.817968 53.783099 206.760424 72.31071 36.57315 11.521506 36.57315 42.341938 36.57315 67.104339a184.119137 184.119137 0 0 1-13.401585 76.34404 241.7106 241.7106 0 0 0-19.764927 71.073394 21.06652 21.06652 0 0 1-7.198933 14.205037c-6.041962 5.286716-18.334782 24.649918-26.176477 63.745908-6.202652 30.932915-3.567328 37.697984-1.044488 44.254155a87.576304 87.576304 0 0 1 2.956705 8.645147c5.126026 18.720439-0.594555 80.23275-6.797207 114.363405a133.517709 133.517709 0 0 0 28.458282 92.477364 145.681977 145.681977 0 0 0 110.603248 52.626128h40.461859a146.64612 146.64612 0 0 0 111.920911-52.658266 133.276673 133.276673 0 0 0 28.410074-92.509502c-6.154445-34.098517-11.923233-95.642966-6.797207-114.331267 0.883798-3.117395 1.880078-5.881271 2.956705-8.677285 2.554978-6.524033 5.158164-13.32124-0.996281-44.254155-7.841695-39.095991-20.166654-58.459192-26.208615-63.745908a21.484315 21.484315 0 0 1-7.198933-14.205037 240.135834 240.135834 0 0 0-19.684582-71.073394 181.226709 181.226709 0 0 1-20.327344-75.524519c0-24.762401 0-55.582832 36.958807-67.232891 60.226787-17.804504 156.464308-50.858533 207.290702-70.832358a468.300228 468.300228 0 0 0-657.690011-2.313943z"  horiz-adv-x="1024" />

    
    <glyph glyph-name="jiantou" unicode="&#59091;" d="M512-128C229.376-128 0 101.376 0 384S229.376 896 512 896s512-229.376 512-512-229.376-512-512-512z m0 983.04C251.904 855.04 40.96 644.096 40.96 384s210.944-471.04 471.04-471.04 471.04 210.944 471.04 471.04S772.096 855.04 512 855.04zM378.88 373.76c-6.144 10.24-4.096 22.528 4.096 30.72l188.416 178.176c10.24 10.24 26.624 8.192 36.864 0 10.24-10.24 10.24-26.624 0-36.864l-167.936-159.744 167.936-161.792c10.24-10.24 10.24-26.624 0-36.864-6.144-4.096-14.336-8.192-20.48-8.192-6.144 0-12.288 2.048-18.432 6.144l-186.368 180.224v2.048c-2.048 2.048-2.048 4.096-4.096 6.144z"  horiz-adv-x="1024" />

    
    <glyph glyph-name="fanhui" unicode="&#58892;" d="M512 896C229.660444 896 0 666.339556 0 384s229.660444-512 512-512 512 229.660444 512 512-229.660444 512-512 512zM286.435556 354.531556c-16.554667 13.425778-20.707556 33.223111-12.401778 49.891555 0 0.170667 0.284444 0.341333 0.398222 0.568889a45.852444 45.852444 0 0 0 11.548444 14.392889l0.170667 0.056889c0 0.056889 0 0.113778 0.113778 0.170666l277.617778 228.408889c21.845333 17.976889 57.230222 18.033778 79.075555 0.113778 21.902222-17.863111 21.959111-46.933333 0.170667-64.853333L404.935111 387.356444l240.071111-194.844444c22.016-17.806222 22.186667-46.819556 0.512-64.853333-10.922667-9.102222-25.315556-13.653333-39.822222-13.653334-14.165333 0-28.330667 4.494222-39.253333 13.312L286.435556 354.531556z"  horiz-adv-x="1024" />

    
    <glyph glyph-name="fanhui1" unicode="&#58893;" d="M512 384m-512 0a512 512 0 1 1 1024 0 512 512 0 1 1-1024 0ZM644.832 96a27.744 27.744 0 0 0-17.28 5.984L297.824 363.936A25.632 25.632 0 0 0 288 384c0 7.744 3.616 15.104 9.824 20.032l329.728 261.984a27.968 27.968 0 0 0 38.208-3.424 25.312 25.312 0 0 0-3.584-36.672L357.664 384l304.512-241.92c11.52-9.184 13.12-25.6 3.584-36.672a27.584 27.584 0 0 0-20.928-9.408z"  horiz-adv-x="1024" />

    
    <glyph glyph-name="xingqiu" unicode="&#58983;" d="M827.733333 349.866667c-8.533333-4.266667-17.066667-10.666667-25.6-14.933334-14.933333-138.666667-134.4-247.466667-279.466666-247.466666-72.533333 0-138.666667 27.733333-187.733334 72.533333-25.6-6.4-51.2-10.666667-76.8-12.8 64-74.666667 157.866667-121.6 264.533334-121.6 189.866667 0 345.6 153.6 345.6 339.2v10.666667c-4.266667-4.266667-10.666667-6.4-14.933334-10.666667-10.666667-6.4-19.2-10.666667-25.6-14.933333zM1011.2 571.733333c-27.733333 74.666667-157.866667 70.4-268.8 51.2 21.333333-17.066667 38.4-36.266667 55.466667-57.6 104.533333 12.8 149.333333-4.266667 153.6-17.066666 4.266667-10.666667-14.933333-49.066667-93.866667-106.666667-12.8-8.533333-25.6-17.066667-40.533333-27.733333-6.4-4.266667-10.666667-6.4-17.066667-10.666667-2.133333 0-2.133333-2.133333-4.266667-2.133333-70.4-42.666667-155.733333-81.066667-245.333333-115.2-104.533333-38.4-192-61.866667-264.533333-74.666667-25.6-4.266667-49.066667-6.4-68.266667-8.533333-85.333333-8.533333-136.533333 2.133333-140.8 17.066666-4.266667 10.666667 17.066667 53.333333 102.4 113.066667 0 8.533333-2.133333 19.2-2.133333 27.733333 0 17.066667 2.133333 34.133333 4.266666 51.2-91.733333-55.466667-194.133333-138.666667-166.4-213.333333 17.066667-44.8 72.533333-64 151.466667-64 27.733333 0 59.733333 2.133333 91.733333 6.4 23.466667 4.266667 51.2 8.533333 76.8 12.8 76.8 17.066667 160 40.533333 238.933334 70.4 83.2 32 162.133333 66.133333 230.4 104.533333 8.533333 4.266667 17.066667 10.666667 25.6 14.933334 8.533333 4.266667 14.933333 8.533333 23.466666 14.933333 4.266667 4.266667 10.666667 6.4 14.933334 10.666667 81.066667 59.733333 168.533333 134.4 142.933333 202.666666zM795.733333 567.466667c-17.066667 21.333333-34.133333 40.533333-55.466666 57.6C682.666667 674.133333 605.866667 704 520.533333 704c-172.8 0-315.733333-125.866667-341.333333-290.133333-2.133333-17.066667-4.266667-34.133333-4.266667-51.2 0-8.533333 0-19.2 2.133334-27.733334 4.266667-46.933333 17.066667-91.733333 38.4-130.133333 21.333333 2.133333 44.8 4.266667 68.266666 8.533333-27.733333 42.666667-44.8 93.866667-44.8 149.333334 0 151.466667 125.866667 275.2 281.6 275.2 140.8 0 256-100.266667 277.333334-232.533334 6.4 4.266667 12.8 6.4 17.066666 10.666667 14.933333 8.533333 27.733333 19.2 40.533334 27.733333-10.666667 44.8-32 87.466667-59.733334 123.733334z"  horiz-adv-x="1024" />

    
    <glyph glyph-name="leimupinleifenleileibie" unicode="&#58883;" d="M320 384L192 384c-70.4 0-128-57.6-128-128l0-128c0-70.4 57.6-128 128-128l128 0c70.4 0 128 57.6 128 128l0 128C448 326.4 390.4 384 320 384zM384 128c0-35.2-28.8-64-64-64L192 64c-35.2 0-64 28.8-64 64l0 128c0 35.2 28.8 64 64 64l128 0c35.2 0 64-28.8 64-64L384 128zM768 832l-128 0C569.6 832 512 774.4 512 704l0-128c0-70.4 57.6-128 128-128l128 0c70.4 0 128 57.6 128 128L896 704C896 774.4 838.4 832 768 832zM832 576c0-35.2-28.8-64-64-64l-128 0C604.8 512 576 540.8 576 576L576 704c0 35.2 28.8 64 64 64l128 0c35.2 0 64-28.8 64-64L832 576zM768 384l-128 0c-70.4 0-128-57.6-128-128l0-128c0-70.4 57.6-128 128-128l128 0c70.4 0 128 57.6 128 128l0 128C896 326.4 838.4 384 768 384zM832 128c0-35.2-28.8-64-64-64l-128 0c-35.2 0-64 28.8-64 64l0 128c0 35.2 28.8 64 64 64l128 0c35.2 0 64-28.8 64-64L832 128zM320 832L192 832C121.6 832 64 774.4 64 704l0-128c0-70.4 57.6-128 128-128l128 0c70.4 0 128 57.6 128 128L448 704C448 774.4 390.4 832 320 832zM384 576c0-35.2-28.8-64-64-64L192 512C156.8 512 128 540.8 128 576L128 704c0 35.2 28.8 64 64 64l128 0c35.2 0 64-28.8 64-64L384 576z"  horiz-adv-x="1024" />

    
    <glyph glyph-name="xingqiu-copy" unicode="&#58884;" d="M509.6 384.2m-284.6 0a284.6 284.6 0 1 1 569.2 0 284.6 284.6 0 1 1-569.2 0ZM509.6 92.60000000000002c-77.9 0-151.1 30.3-206.2 85.4S218 306.29999999999995 218 384.2s30.3 151.1 85.4 206.2 128.3 85.4 206.2 85.4c77.9 0 151.1-30.3 206.2-85.4s85.4-128.3 85.4-206.2-30.4-151.1-85.4-206.2-128.4-85.4-206.2-85.4z m0 569.2c-74.2 0-143.9-28.9-196.3-81.3-52.4-52.4-81.3-122.1-81.3-196.3s28.9-143.9 81.3-196.3c52.4-52.4 122.1-81.3 196.3-81.3 74.2 0 143.9 28.9 196.3 81.3s81.3 122.1 81.3 196.3-28.9 143.9-81.3 196.3c-52.5 52.4-122.2 81.3-196.3 81.3zM136.9 333.1m-48 0a48 48 0 1 1 96 0 48 48 0 1 1-96 0ZM136.9 278.1c-30.3 0-55 24.7-55 55s24.7 55 55 55 55-24.7 55-55-24.7-55-55-55z m0 95.9c-22.6 0-41-18.4-41-41s18.4-41 41-41 41 18.4 41 41-18.5 41-41 41zM794.2 658.9m-37 0a37 37 0 1 1 74 0 37 37 0 1 1-74 0ZM794.2 614.9c-24.2 0-44 19.7-44 44s19.7 44 44 44 44-19.7 44-44-19.8-44-44-44z m0 73.9c-16.5 0-30-13.4-30-30s13.4-30 30-30 30 13.4 30 30-13.5 30-30 30zM592.1 502.5m-98.7 0a98.7 98.7 0 1 1 197.4 0 98.7 98.7 0 1 1-197.4 0ZM592.1 396.9c-58.3 0-105.7 47.4-105.7 105.7s47.4 105.7 105.7 105.7 105.7-47.4 105.7-105.7-47.4-105.7-105.7-105.7z m0 197.3c-50.5 0-91.7-41.1-91.7-91.7s41.1-91.7 91.7-91.7 91.7 41.1 91.7 91.7-41.2 91.7-91.7 91.7zM599.3 215.5m-42.6 0a42.6 42.6 0 1 1 85.2 0 42.6 42.6 0 1 1-85.2 0ZM599.3 165.89999999999998c-27.4 0-49.6 22.3-49.6 49.6s22.3 49.6 49.6 49.6 49.6-22.3 49.6-49.6-22.2-49.6-49.6-49.6z m0 85.2c-19.6 0-35.6-16-35.6-35.6s16-35.6 35.6-35.6 35.6 16 35.6 35.6-15.9 35.6-35.6 35.6zM844.6 130.29999999999995c-2.2 0-4.5 0.1-6.8 0.2-24.6 1.1-56.8 8.3-95.6 21.2-81.3 27-191.8 79.5-295.6 140.5-102.2 60-193.8 124.4-257.9 181.5-75 66.7-101.5 112.1-83.5 142.7 11.8 20 40.5 26.3 85.6 18.5 32.9-5.7 74.7-18.7 124.4-38.6 3.6-1.4 5.3-5.5 3.9-9.1-1.4-3.6-5.5-5.3-9.1-3.9-48.8 19.6-89.7 32.3-121.6 37.8-26.6 4.6-60.5 6.3-71.1-11.8-13.6-23.2 13.5-65.4 80.7-125.2 63.5-56.5 154.2-120.3 255.7-179.9 79.5-46.7 198.2-107.8 292.9-139.3 76-25.3 124.8-27.3 137.4-5.8 8.6 14.7 6.6 53.1-104.1 145.3a7 7 0 0 0-0.9 9.9 7 7 0 0 0 9.9 0.9c38.3-31.8 67.2-60.4 85.9-84.8 25.3-33 32.5-59.3 21.3-78.3-8.5-14.5-25.8-21.8-51.5-21.8z"  horiz-adv-x="1024" />

    
    <glyph glyph-name="fenlei" unicode="&#58885;" d="M352.904 896H121.492C52.068 896 0 843.932 0 780.294V548.88c0-63.638 52.068-115.706 115.706-115.706H347.12c63.638 0 115.706 52.068 115.706 115.706V780.294C468.61 843.932 416.542 896 352.904 896z m46.282-341.333c0-34.712-28.926-57.853-57.853-57.853h-208.27c-34.713 0-57.854 28.926-57.854 57.853V768.723c0 34.712 28.927 57.853 57.853 57.853h208.271c34.712 0 57.853-28.926 57.853-57.853v-214.056zM902.508 896H671.096C607.458 896 555.39 843.932 555.39 780.294V548.88c0-63.638 52.068-115.706 115.706-115.706h231.412c63.639 0 115.707 52.068 115.707 115.706V780.294C1024 843.932 966.147 896 902.508 896z m52.068-341.333c0-34.712-28.926-57.853-57.853-57.853H688.452c-34.712 0-57.853 28.926-57.853 57.853V768.723c0 34.712 28.926 57.853 57.853 57.853h208.271c34.712 0 57.853-28.926 57.853-57.853v-214.056zM352.904 340.61H121.492c-63.639 0-115.707-52.068-115.707-115.706v-231.412c0-63.639 52.068-115.707 115.707-115.707h231.412c63.638 0 115.706 52.068 115.706 115.707V224.904c0 63.638-52.068 115.706-115.706 115.706z m46.282-341.333c0-34.712-28.926-57.853-57.853-57.853h-208.27c-34.713 0-57.854 28.926-57.854 57.853V207.548c0 34.712 28.927 57.853 57.853 57.853h208.271c34.712 0 57.853-28.926 57.853-57.853v-208.271zM902.508 340.61H671.096c-63.638 0-115.706-52.068-115.706-115.706v-231.412c0-63.639 52.068-115.707 115.706-115.707h231.412c63.639 0 115.707 52.068 115.707 115.707V224.904C1024 288.54200000000003 966.147 340.61 902.508 340.61z m52.068-341.333c0-34.712-28.926-57.853-57.853-57.853H688.452c-34.712 0-57.853 28.926-57.853 57.853V207.548c0 34.712 28.926 57.853 57.853 57.853h208.271c34.712 0 57.853-28.926 57.853-57.853v-208.271z"  horiz-adv-x="1024" />

    
    <glyph glyph-name="yemian-copy-copy" unicode="&#58887;" d="M562.805 815.3025a72.135 72.135 0 0 1-96.93 0L73.925 443.13a36.1575 36.1575 0 0 1 48.42-53.7075l6.2325 5.9175V6.899999999999977a72.315 72.315 0 0 1 72.315-72.405h210.4425v217.71a50.9175 50.9175 0 0 0 50.94 50.985h99.0225a50.9175 50.9175 0 0 0 50.94-50.985v-217.71h215.4375a72.315 72.315 0 0 1 72.3375 72.405V390.5925c16.065-14.535 38.8575-13.4325 52.2225 1.4625a36.1575 36.1575 0 0 1-2.61 51.075L562.805 815.28z"  horiz-adv-x="1024" />

    
    <glyph glyph-name="xingqiu1" unicode="&#58889;" d="M1249.899789 578.5061049999999a33.118316 33.118316 0 0 1-42.657684-19.024842c-6.521263-16.97684201 2.021053-36.028632 19.105684-42.522947 31.339789-11.910737 50.822737-26.89347399 53.490527-41.121684 11.34484199-60.901053-208.30315799-193.077895-578.290527-261.55115799-167.639579-31.043368-328.326737-41.660632-452.338526-29.93852701-118.918737 11.237053-176.90947399 41.849263-181.625263 67.152842-2.80252599 14.982737 11.317895 37.10652601 38.723368 60.685474a32.875789 32.875789 0 0 1 3.368421 46.45726301 33.145263 33.145263 0 0 1-46.61894701 3.39536899C15.36 320.99705300000005-4.958316 279.76757899999996 2.56 239.481263c12.153263-65.26652599 95.285895-106.981053 240.37052601-120.72421 5.793684-0.538947 11.749053-0.970105 17.67747399-1.42821099 90.058105-135.841684 244.520421-225.54947401 420.136421-225.54947401 243.95452599 0 447.24547399 172.948211 493.406316 402.458948 113.448421 58.152421 183.430737 125.35915799 170.684631 193.643789-7.275789 38.965895-39.208421 69.443368-94.935579 90.624zM355.166316 231.61263199999996c101.349053 0 217.950316 11.668211 337.111579 33.738105 189.305263 35.031579 317.655579 82.67452599 391.976421 116.466526 43.735579 19.88715799 75.452632 38.022737 97.953684 53.167158C1160.892632 692.412632 944.613053 894.73347401 680.744421 894.73347401c-277.962105 0-503.296-224.52547401-503.296-501.49052701 0-52.30484201 8.218947-102.66947399 23.17473699-150.042947 15.44084199-2.775579 33.145263-5.254737 53.38273701-7.168a1091.098947 1091.098947 0 0 1 101.160421-4.419368z"  horiz-adv-x="1347" />

    
    <glyph glyph-name="gouwuche" unicode="&#58890;" d="M941.527805 144.21565499999997H387.447784a69.584731 69.584731 0 0 0-69.399172 58.080055l-64.945749 442.930011a66.059105 66.059105 0 0 0 15.58698 52.698836 71.254765 71.254765 0 0 0 53.812192 24.308266h683.600401a70.512528 70.512528 0 0 0 53.626633-24.308266 66.059105 66.059105 0 0 0 15.58698-52.698836l-64.574631-442.744451a69.399172 69.399172 0 0 0-69.213613-58.265615zM322.502035 685.492085a34.328467 34.328467 0 0 1-25.79274-11.504675 28.947248 28.947248 0 0 1-6.865694-23.009352l64.574631-442.93001a32.287315 32.287315 0 0 1 33.029552-26.720537h554.45114a32.101756 32.101756 0 0 1 32.472874 26.163859l64.574631 442.93001a27.648333 27.648333 0 0 1-6.865693 23.009352 33.77179 33.77179 0 0 1-25.607181 11.504675zM972.330646-127.99981400000001a122.654686 122.654686 0 1 0 122.654687 122.654686 122.840246 122.840246 0 0 0-122.654687-122.654686z m0 208.011957a85.54283 85.54283 0 1 1 85.54283-85.357271 85.54283 85.54283 0 0 1-85.54283 85.357271zM347.18142-127.99981400000001a122.654686 122.654686 0 1 0 122.469127 122.654686 122.840246 122.840246 0 0 0-122.469127-122.654686z m0 208.011957a85.54283 85.54283 0 1 1 85.35727-85.357271 85.54283 85.54283 0 0 1-85.35727 85.357271zM284.647941 537.601336a18.555928 18.555928 0 0 0-17.442573 15.401421l-37.111856 215.248769a77.563781 77.563781 0 0 1-63.832394 64.57463L16.329217 858.618897a18.815711 18.815711 0 1 0 6.309016 37.111856l151.416375-25.79274a113.562282 113.562282 0 0 0 94.449675-95.74859l37.111857-214.506532a18.555928 18.555928 0 0 0-15.215861-21.339318 13.731387 13.731387 0 0 0-5.752338-0.742237z"  horiz-adv-x="1095" />

    
    <glyph glyph-name="leimupinleifenleileibie2" unicode="&#58891;" d="M320 832L192 832C121.6 832 64 774.4 64 704l0-128c0-70.4 57.6-128 128-128l128 0c70.4 0 128 57.6 128 128L448 704C448 774.4 390.4 832 320 832zM768 832l-128 0C569.6 832 512 774.4 512 704l0-128c0-70.4 57.6-128 128-128l128 0c70.4 0 128 57.6 128 128L896 704C896 774.4 838.4 832 768 832zM320 384L192 384c-70.4 0-128-57.6-128-128l0-128c0-70.4 57.6-128 128-128l128 0c70.4 0 128 57.6 128 128l0 128C448 326.4 390.4 384 320 384zM768 384l-128 0c-70.4 0-128-57.6-128-128l0-128c0-70.4 57.6-128 128-128l128 0c70.4 0 128 57.6 128 128l0 128C896 326.4 838.4 384 768 384z"  horiz-adv-x="1024" />

    
    <glyph glyph-name="ren" unicode="&#58882;" d="M910.648372-147.013917l-0.225127 5.545296C903.077953 40.264421 727.240179 182.622686 510.113023 182.622686c-217.105666 0-392.927067-142.358265-400.273383-324.092329l-0.224104-5.545296L44.418652-147.01494l0.215918 5.986341c1.423419 39.493479 9.923 78.304414 25.26236 115.353215 16.369829 39.536458 40.222073 76.475765 70.8967 109.791545 30.4188 33.038464 66.754357 61.669548 107.999736 85.09712 41.923832 23.813359 87.855954 41.634236 136.521327 52.967352l24.690332 5.748934-23.041786 10.570753c-46.179762 21.184485-85.303828 54.584176-113.142873 96.587825-28.633131 43.199894-43.766806 93.450369-43.766806 145.31869 0 71.336722 28.049846 138.40728 78.982866 188.857299 50.953486 50.468438 118.705566 78.262458 190.774975 78.262458 72.073502 0 139.825582-27.79402 190.777021-78.262458 50.929949-50.446949 78.978772-117.517507 78.978772-188.857299 0-50.689473-14.552437-99.955526-42.085514-142.470829-26.705222-41.23617-64.422242-74.562183-109.076254-96.373954l-22.905686-11.18883 24.978904-5.092995c99.841939-20.35356 190.225459-68.796876 254.500345-136.406716 32.04688-33.708729 56.990992-71.272253 74.142627-111.645776 16.114003-37.932937 25.024953-77.721129 26.484188-118.256334l0.214894-5.986341L910.648372-147.01494zM499.800144 703.609361c-124.186394 0-225.219461-100.123348-225.219461-223.191268 0-123.089409 101.034091-223.229131 225.219461-223.229131 124.19151 0 225.228671 100.140745 225.228671 223.229131C725.029838 603.487036 623.991654 703.609361 499.800144 703.609361z"  horiz-adv-x="1024" />

    
    <glyph glyph-name="mi" unicode="&#58880;" d="M506.585 879.498c-275.844 0-499.459-223.615-499.459-499.458 0-275.844 223.615-499.459 499.459-499.459 275.843 0 499.459 223.614 499.459 499.459 0 275.842-223.615 499.458-499.459 499.458zM544.995 536.338c18.087 22.091 32.124 40.179 42.203 54.263 6.030 10.033 9.044 22.091 9.044 36.175 0 12.059 1.978 19.076 6.030 21.102 38.153-6.029 63.305-19.124 75.364-39.189 0-4.050-8.054-11.069-24.116-21.102-12.059-8.054-20.113-14.083-24.117-18.087-58.312-48.233-92.462-68.346-102.495-60.292-2.025 1.978 4.004 11.022 18.087 27.131zM382.209 551.412c8.007-14.083 9.044-32.17 3.014-54.263-6.029-14.083-15.072-14.083-27.131 0-4.050 6.030-11.069 17.052-21.102 33.161-12.059 16.062-20.113 27.131-24.117 33.16-12.056 26.095 11.024 22.091 69.336-12.057zM843.437 180.62c-120.582-18.087-182.898-14.083-186.902 12.059-64.342 72.35-120.583 136.645-168.815 192.933-2.026-48.233-1.037-103.531 3.014-165.801 1.978-34.196 3.014-62.317 3.014-84.408-2.026-46.207-10.080-72.349-24.116-78.379-18.087 10.080-28.167 33.16-30.146 69.335 0 8.008 0.989 21.102 3.014 39.189 10.033 66.32 17.051 149.691 21.102 250.209-54.262-122.609-140.694-211.020-259.251-265.283-14.083-8.054-24.117-11.068-30.146-9.044-4.050 1.978 0 7.018 12.059 15.073 114.553 78.379 192.932 166.79 235.136 265.281-34.196-4.050-67.357-12.059-99.48-24.117-14.083-6.029-24.117-9.044-30.146-9.044-60.292 10.033-76.401 20.066-48.233 30.146 16.062 1.978 48.233 6.029 96.466 12.059 46.207 8.008 86.386 14.037 120.583 18.087v72.349c0 74.327-7.065 133.63-21.102 177.86-4.050 12.059-5.040 20.066-3.015 24.117 36.175-2.026 64.295-13.094 84.408-33.161 0-2.025-1.036-7.065-3.014-15.072-16.109-42.203-26.143-115.59-30.146-220.063 38.153 6.029 77.342 14.037 117.567 24.117 20.066 4.003 33.16 6.029 39.189 6.029 60.292-4.050 77.342-18.087 51.248-42.203-28.167 0-81.394-2.026-159.772-6.029-20.112-2.026-36.175-3.015-48.232-3.015v-18.087c124.584-132.643 237.113-204.002 337.629-214.035 20.066-4.050 32.124-8.054 36.175-12.059 4.004-4.050-2.025-7.065-18.087-9.044z"  horiz-adv-x="1024" />

    
    <glyph glyph-name="ziyuan" unicode="&#58894;" d="M741.127097 889.4464a192.1024 192.1024 0 0 1-91.7504-89.2928l-2.4576-4.096-197.4272-376.4224L225.440697 847.2576a29.0816 29.0816 0 0 1-16.7936 13.9264H132.051897V-128h101.5808V609.28s178.5856-296.1408 182.272-302.6944a38.5024 38.5024 0 0 1 37.2736-23.3472 37.2736 37.2736 0 0 1 35.6352 24.576L664.531897 612.5568000000001V-128h102.4V671.1296a497.2544 497.2544 0 0 0 0 95.0272 94.6176 94.6176 0 0 0 122.88 91.3408c11.0592-7.7824-79.872 58.9824-148.6848 31.9488z"  horiz-adv-x="1024" />

    
    <glyph glyph-name="mishi" unicode="&#58888;" d="M519.366906 883.476259C242.739568 883.476259 16.391367 657.128058 16.391367 380.500719 16.391367 103.873381 242.739568-122.47482 519.366906-122.47482s502.97554 226.348201 502.97554 502.975539C1022.342446 657.128058 795.994245 883.476259 519.366906 883.476259zM740.926619 433.358273l-88.034533 11.05036-389.341007-192.460432 60.776979-84.903597S583.827338 25.784173 750.319424-66.486331c134.814388 69.617266 234.451799 198.538129 264.103598 351.585612L767.447482 418.992806l-26.520863 14.365467zM744.610072 430.043165c-0.552518 2.394245-2.946763 3.867626-5.341007 3.315108-2.394245-0.552518-3.867626-2.76259-3.315108-5.156834l46.227338-226.164029c0.368345-1.473381 1.289209-7.182734 9.576978-11.602878 6.814388-3.130935 12.707914-3.315108 13.628777-3.315108 5.341007-0.368345 9.576978 1.657554 12.523741 4.78849 3.683453 3.867626 4.420144 9.945324 2.578418 15.102158L744.610072 430.043165zM887.896403 214.745324L767.263309 417.151079c-1.105036 2.210072-3.683453 3.130935-5.893525 2.210072-2.210072-0.920863-3.130935-3.499281-2.210072-5.709352l92.270504-211.614389c0.736691-1.473381 2.76259-6.814388 11.78705-9.392806 7.366906-1.657554 13.076259-0.552518 13.997122-0.552518 5.341007 0.736691 9.02446 3.683453 11.234533 7.366907 2.76259 4.788489 2.210072 10.682014-0.552518 15.286331zM651.234532 444.408633c-17.31223-1.105036-33.703597-2.210072-49.910791-3.130935 0.368345 0.184173 0.920863 0.368345 1.289209 0.552518 6.814388 4.972662 9.392806 13.628777 6.630215 21.732374l-11.602877 17.128057c2.946763 4.788489 3.867626 10.866187 1.841726 16.57554l-13.076259 18.969784c-2.946763 4.051799-7.366906 6.814388-12.339568 7.551079-4.788489 0.920863-9.576978-0.368345-13.444604-3.130935-0.552518 3.499281-1.841727 6.998561-4.420144 9.761151-3.499281 3.683453-8.103597 5.709353-13.076259 5.893525l-17.128058 0.552518c1.105036 2.210072 1.657554 4.420144 1.841727 6.998562 0.368345 4.972662-1.289209 9.945324-4.604317 13.628776-5.52518 6.261871-14.54964 8.28777-22.469064 4.420144l-17.128058-14.181295c-2.025899 2.025899-4.420144 3.867626-7.182734 4.78849l-7.366906 15.286331c-4.420144 9.392806-15.838849 13.260432-25.231655 8.840287-5.52518-2.76259-9.392806-7.919424-10.313669-13.997122l-6.630216 0.184173c-0.920863 2.210072-2.210072 4.235971-3.867626 6.077698-3.499281 3.683453-8.103597 5.893525-13.076259 5.893525l-17.864748 0.552518c-5.341007 0.552518-9.945324-1.657554-13.628777-4.972662-2.946763-2.76259-4.604317-6.261871-5.341007-10.129497l-2.210072 4.604317c-2.210072 4.604317-6.077698 7.919424-10.682014 9.576978-4.788489 1.657554-9.945324 1.289209-14.549641-0.73669-7.551079-3.683453-11.78705-11.971223-10.497841-20.07482l9.392805-21.179857c1.473381-2.946763 3.867626-5.341007 6.630216-7.182733-2.210072 0.920863-4.604317 1.473381-6.998561 1.657554l-8.103597 0.184172c0.368345 1.105036 0.920863 2.025899 0.920863 2.946763 0.552518 4.972662-0.920863 9.945324-3.867626 13.81295-6.446043 8.103597-18.417266 9.392806-26.520863 2.946762l-14.181295-11.234532c-3.683453-2.946763-5.709353-6.998561-6.446043-11.05036-2.210072 1.289209-4.788489 2.210072-7.366907 2.578417-4.972662 0.552518-9.945324-0.920863-13.812949-4.051798l-13.997123-11.05036c-2.76259-2.210072-4.420144-4.972662-5.525179-8.103597-3.683453-0.368345-7.182734-1.289209-10.129497-3.683453l-13.997122-11.05036c-4.051799-3.130935-6.446043-7.735252-6.998561-12.707914-0.552518-4.972662 0.920863-9.945324 4.051798-13.997122 3.683453-4.604317 9.208633-6.998561 14.733813-6.998561 2.394245 0 4.788489 0.368345 6.998561 1.289208l3.499281 2.578418 4.788489-10.682015c2.210072-4.604317 6.077698-7.919424 10.682015-9.576978 2.025899-0.736691 4.235971-1.105036 6.26187-1.105036 2.76259 0 5.52518 0.552518 8.28777 1.841727 3.315108 1.657554 5.893525 4.420144 7.735252 7.551079 0.736691-1.841727 1.473381-3.499281 2.578417-4.972662 3.683453-4.604317 9.208633-6.998561 14.733813-6.998561-69.617266 2.394245-107.741007 7.366906-121.553957 9.761151-3.130935 0.552518-6.077698-2.025899-5.893525-5.156835 2.76259-102.584173 74.221583-235.92518 241.45036-235.92518 133.341007 0 241.45036 102.4 241.450359 206.641727-0.552518 8.103597 5.709353 34.256115-2.76259 33.703597zM286.388489 468.719424c-1.841727-1.473381-3.130935-3.130935-4.235971-4.972661-0.184173 0.368345-0.184173 0.736691-0.368345 1.105036l-7.735252 16.207194c-0.184173 0.552518-0.736691 0.920863-1.105036 1.289208l9.208633 6.814389 4.420144-9.945324c1.289209-2.578417 3.130935-4.604317 5.156834-6.26187l-5.341007-4.235972z m276.443166-26.33669c2.210072-0.736691 4.235971-1.473381 6.630216-1.473381 3.315108 0 6.446043 1.105036 9.392805 2.762589 1.473381-1.473381 3.315108-2.578417 5.156835-3.49928-8.28777-0.552518-16.207194-0.920863-24.126619-1.289209 0.920863 1.105036 2.210072 2.210072 2.946763 3.499281z m-56.172662-0.184173c4.604317 0 9.02446 1.657554 12.339568 4.788489l5.156835 4.604317 7.551079-10.313669c1.105036-1.473381 2.578417-2.210072 4.051798-3.315108-10.866187-0.552518-21.364029-0.920863-31.677697-1.289209 0.920863 1.841727 1.657554 3.683453 2.025899 5.893525 0.184173-0.368345 0.368345-0.368345 0.552518-0.368345z m-85.08777 50.279137c0.920863-0.184173 1.657554-0.552518 2.394245-0.736691h1.289208c4.420144 0 8.471942 1.657554 11.971223 4.420144l5.341007-12.155396c1.105036-2.210072 2.578417-4.235971 4.420144-5.709352l-12.892086 0.368345c-2.025899 0.184173-3.867626-0.368345-5.709352-0.920863l-3.867626 8.103597c-0.920863 2.025899-2.394245 3.683453-3.867626 5.156835 0.368345 0.552518 0.736691 1.105036 0.920863 1.473381z m-69.617266 32.230216c-0.184173 0-0.184173 0.184173-0.184173 0.184172 0-0.184173 0.184173-0.184173 0.184173-0.184172z m-26.705036-34.440288c-0.368345-0.184173-0.736691-0.184173-0.920863-0.184173-0.736691-0.368345-1.289209-0.920863-1.841727-1.289208 0 0.552518-0.368345 1.105036-0.368345 1.841726l3.130935-0.368345z m-27.073381-55.251799c2.394245 0 4.788489 0.368345 6.998561 1.473382l17.680575 13.076259 0.368346-1.105036c2.210072-4.604317 6.077698-7.919424 10.682014-9.576979 2.025899-0.736691 4.235971-1.105036 6.26187-1.105036 2.76259 0 5.52518 0.552518 8.103598 1.841727 4.604317 2.210072 7.919424 6.077698 9.576978 10.682014 1.657554 4.420144 1.289209 9.208633-0.552518 13.444605l4.235971-0.184173 9.024461-20.443166c2.210072-4.420144 5.893525-7.735252 10.313669-9.392805-31.309353 0-58.935252 0.552518-82.693525 1.289208z m95.401438-1.105036c0.736691 0.184173 1.657554 0.184173 2.394245 0.552518 4.788489 2.210072 8.103597 6.261871 9.576978 10.866187 2.946763-1.657554 6.261871-2.76259 9.761152-2.76259 2.578417 0 5.156835 0.552518 7.551079 1.657554 1.473381-0.920863 2.946763-1.841727 4.604316-2.394244l23.205756-1.473381h0.73669c4.788489 0 9.208633 1.841727 12.892087 4.972661l7.366906-10.129496c-28.36259-0.736691-54.330935-1.105036-78.089209-1.289209zM495.42446 206.641727c-76.615827-16.57554-136.28777-8.840288-167.412949-1.841727-11.971223 2.76259-21.732374-9.576978-16.57554-20.627338 2.578417-5.52518 5.709353-10.866187 9.208633-15.102158 4.420144-5.341007 11.05036-8.28777 17.864749-8.28777h140.892086c8.656115 0 16.57554 4.604317 20.995683 11.971223 3.130935 5.341007 6.077698 11.602878 8.471943 17.680575 3.683453 8.840288-4.235971 18.233094-13.444605 16.207195z"  horiz-adv-x="1046" />

    
    <glyph glyph-name="mi1" unicode="&#59211;" d="M772.419884 741.347858c15.831421 59.156557 142.933509 154.398614 142.93351 154.398614a584.241424 584.241424 0 0 0 0-162.032626c-10.535501-74.649941-66.199004-79.776842-87.326346-74.649941a66.7624 66.7624 0 0 0-55.578994 82.283953z m-103.383126 118.313114s29.212071-131.214877 82.143105-164.652417 15.915931-92.678606 2.64796-102.904239c-15.915931-7.746692-92.678606-30.986768-121.777997 36.02916-31.860031 66.875079-7.97205 198.061786 36.986932 231.527496z m-82.030425-177.469671a520.408682 520.408682 0 0 1 79.466975-187.751643c18.507551-38.592611-34.451652-64.311628-37.099612-64.311629-47.691453-12.873594-98.059036 0-103.270447 69.4667-2.64796 69.4667 2.64796 123.468185 60.903084 182.596572z m-92.678606-159.469175a316.825617 316.825617 0 0 1 45.071662-95.185717 982.731259 982.731259 0 0 0 63.551044-79.776843 46.113945 46.113945 0 0 0-23.803471-64.283458c-26.479602-10.310143-76.819015-17.972325-95.326566 10.310143a213.188963 213.188963 0 0 0 10.62001 228.935875z m-90.143325-149.299882a1808.021567 1808.021567 0 0 1 108.566367-151.750653c39.747572-61.720008 10.64818-97.749168-29.099392-102.904239-45.071662-2.563451-74.171054-10.310143-90.143325 48.846414-2.563451 18.056835-26.451432 72.03015 10.64818 205.808478z m-71.523094-174.87805c-21.155512-30.986768-31.775522-30.986768-60.903084-20.620285a44.508267 44.508267 0 0 0-39.747572 38.59261 70.621661 70.621661 0 0 0 29.127562 56.593107c39.747572 25.775357 76.819015 48.902754 92.763115 84.931913 10.535501-15.465214 13.183461-108.08748-21.240021-159.497345z m0 277.782289a260.908586 260.908586 0 0 0-23.803472-149.159032 61.043933 61.043933 0 0 0-55.607163-38.592611 49.888696 49.888696 0 0 0-47.691453 51.409865A68.368078 68.368078 0 0 0 245.306792 396.63415c50.254904 28.169789 90.002476 66.875079 87.326346 79.692333z m-26.479602 105.49586c2.816979-28.169789 2.816979-102.904239-23.803471-136.369948-23.887981-30.845919-68.875134-36.00099-87.326346-12.873594 0 0-23.803472 33.522049 34.451652 74.621771a247.894143 247.894143 0 0 1 76.790845 74.621771zM134.036126 664.162637a419.419988 419.419988 0 0 0 74.171054-92.650437 48.677395 48.677395 0 0 0-15.915931-74.537261c-7.887541-5.183241-66.199004-15.493384-74.171054 25.690847A274.373745 274.373745 0 0 0 134.036126 664.162637z m-132.398009-108.059311s76.819015-66.875079 124.454128-66.875079c47.691453-2.591621 50.339413-38.592611 42.254684-56.564936a56.621276 56.621276 0 0 0-82.143105-23.211907c-47.635113 28.169789-95.326566 110.622761-84.706555 146.651922z m34.479822-131.074028a232.710627 232.710627 0 0 1 132.398008-72.030151c39.719402-2.591621 31.775522-46.339303 18.507552-59.156557a69.325851 69.325851 0 0 0-87.326346 0 152.652087 152.652087 0 0 0-63.579214 131.186708z m161.52557-187.836153a30.028995 30.028995 0 0 0 18.592061-51.409865 51.071827 51.071827 0 0 0-58.311463-23.127397 148.933674 148.933674 0 0 0-100.650656 136.341779 334.657093 334.657093 0 0 1 140.370058-61.804517z m-39.719402-177.469671a468.435421 468.435421 0 0 0-84.706556 123.468185 1328.177382 1328.177382 0 0 1 145.665979-53.973316c50.283073-20.648455 42.254684-56.649446 21.155512-72.05832-21.155512-20.620286-47.691453-25.775357-82.114935 2.563451zM277.138654-120.365987c0-2.591621-21.183681 123.468185-50.367583 159.469175a203.949272 203.949272 0 0 1 63.551044 10.310143c5.29592 5.155071 13.267971-156.877555 13.267971-156.877555z m31.775522 180.089461a45.635058 45.635058 0 0 0-47.719623 54.001485 93.777228 93.777228 0 0 0 39.747573 41.184232 250.429424 250.429424 0 0 1 76.819014 72.05832 228.738687 228.738687 0 0 0-5.32409-92.678606c-7.94388-33.465709-23.803472-71.973811-63.522874-74.565431z m92.650436-187.836153l-45.071662 5.155071s92.678606 162.060796 92.678605 221.301863a380.038623 380.038623 0 0 1 84.706556-33.46571c13.267971 2.535281-132.398008-192.991224-132.398008-192.991224z m312.684658 234.119116c-39.747572-33.465709-98.002696-59.156557-145.694149-38.592611a53.297241 53.297241 0 0 0-7.887541 95.242057 129.383841 129.383841 0 0 0 76.734505 20.535776 589.678193 589.678193 0 0 1 166.93417 30.986768c21.155512 25.690848-47.719623-79.776842-90.143325-108.059311z m13.26797 113.214382c-55.663503-20.563946-92.763115-18.056835-108.622706 7.718522a122.059696 122.059696 0 0 0 0 72.058321s13.29614 51.409865 87.326346 48.818244c68.846964 2.591621 148.342109 5.183241 196.033562 36.02916-26.535941-84.847404-124.538637-149.299882-174.652692-164.624247z m111.242497 167.215868c-60.987593-33.43754-98.059036-33.43754-121.890677-12.901764a76.959864 76.959864 0 0 0-21.155511 84.931914s18.535721 46.254794 108.622706 46.254794c84.706556-2.563451 161.52557 15.493384 174.793541 30.986768-2.816979-18.056835-90.143325-123.552695-140.370059-149.299882z m55.578994 151.750653c-47.691453-18.000495-116.566587-18.000495-119.214547 41.156062 0 0-5.211411 61.748177 111.242497 64.311628 105.946576 5.155071 145.694149 12.901763 164.2017 38.592611a354.235097 354.235097 0 0 0-156.22965-144.060301z m0 0"  horiz-adv-x="1050" />

    
    <glyph glyph-name="ren1" unicode="&#58898;" d="M942.5 107.25c10 15 17.5 28.75 26.25 45 2.5 3.75 3.75 7.5 5 11.25C980 176 985 188.5 990 201c2.5 5 3.75 10 6.25 16.25 3.75 12.5 7.5 23.75 11.25 36.25 1.25 6.25 3.75 11.25 5 17.5 2.5 12.5 5 26.25 7.5 38.75 1.25 6.25 2.5 11.25 2.5 16.25 2.5 18.75 3.75 37.5 3.75 57.5 0 282.5-230 512.5-512.5 512.5C230 896 0 666 0 383.5c0-18.75 1.25-38.75 3.75-57.5C5 319.75 5 314.75 6.25 308.5c1.25-11.25 3.75-25 6.25-37.5 1.25-6.25 2.5-12.5 5-17.5 3.75-12.5 7.5-25 11.25-36.25 1.25-5 3.75-10 6.25-16.25 5-12.5 10-26.25 16.25-37.5 1.25-3.75 3.75-7.5 5-11.25 7.5-15 16.25-30 26.25-45l1.25-1.25C175-35.25 332.5-127.75 512.5-127.75S850-34 941.25 106l1.25 1.25ZM512.5 651c103.75 0 188.75-85 188.75-188.75-1.25-103.75-85-187.5-188.75-187.5s-188.75 85-188.75 188.75c0 102.5 85 187.5 188.75 187.5ZM201.25 63.5C255 186 376.25 267.25 512.5 267.25S770 186 823.75 63.5C742.5-15.25 632.5-62.75 512.5-62.75c-121.25 0-231.25 47.5-311.25 126.25Z"  horiz-adv-x="1026" />

    
    <glyph glyph-name="shanchu" unicode="&#58886;" d="M733.855 104.055c0-26.574-21.63-48.203-48.202-48.203H338.347c-26.573 0-48.202 21.63-48.202 48.203V615.743h443.71v-511.688zM386.55 702.26c0 5.562 4.326 9.888 9.888 9.888H628.18c5.562 0 9.888-4.326 9.888-9.888v-29.045H386.55V702.26z m491.913-29.045H695.54V702.26c0 37.08-30.28 67.36-67.36 67.36H396.438c-37.08 0-67.36-30.28-67.36-67.36v-29.045h-183.54c-16.068 0-29.046-12.978-29.046-29.045s12.978-29.045 29.045-29.045h86.518v-511.07c0-58.709 47.584-106.293 106.292-106.293h347.306c58.708 0 106.292 47.584 106.292 106.293V615.743h86.518c16.067 0 29.045 12.977 29.045 29.045s-12.978 28.427-29.045 28.427zM512 142.987c16.068 0 29.045 12.978 29.045 29.046v308.99c0 16.068-12.977 29.045-29.045 29.045s-29.045-12.977-29.045-29.045v-308.99c0-16.068 12.977-29.046 29.045-29.046m-135.338 0c16.068 0 29.045 12.978 29.045 29.046v308.99c0 16.068-12.977 29.045-29.045 29.045s-29.045-12.977-29.045-29.045v-308.99c0.618-16.068 13.596-29.046 29.045-29.046m270.676 0c16.067 0 29.045 12.978 29.045 29.046v308.99c0 16.068-12.978 29.045-29.045 29.045s-29.045-12.977-29.045-29.045v-308.99c0-16.068 12.977-29.046 29.045-29.046"  horiz-adv-x="1024" />

    
    <glyph glyph-name="mi2" unicode="&#58913;" d="M1157.787826 95.49913c-5.698783 13.57913 14.202435 141.846261-13.534609 230.310957 48.973913 27.425391 66.426435 51.912348 64.422957 60.104348-4.719304 19.456-88.464696 153.243826-69.008696 190.998261 19.456 37.709913 68.474435 79.026087 12.911305 107.074782-30.72 15.538087-115.177739 55.652174-232.804174 86.906435-34.816 29.384348-73.728 62.508522-101.687652 77.111652-41.316174 21.593043-120.787478 43.898435-198.477914 43.898435-17.229913 0-34.326261-1.068522-50.932869-3.517217-58.546087-8.637217-124.482783-53.248-177.997913-94.831305-174.747826-29.295304-267.842783-84.813913-263.078957-107.965217 6.277565-30.541913 15.09287-154.445913-22.572521-197.053218-37.62087-42.562783-30.45287-46.302609 2.31513-76.933565 2.80487-2.671304 5.654261-5.209043 8.548174-7.702261a319.577043 319.577043 0 0 1-30.497391-148.435478c1.113043-38.288696-7.212522-110.592-7.034435-118.605913 0.222609-8.013913-81.830957-102.845217-69.632-109.968696 26.935652-15.582609 119.763478-42.473739 164.196174-42.473739 4.229565 0 8.013913 0.26713 11.264 0.75687a29.250783 29.250783 0 0 0 4.452174 0.356174c39.579826 0 126.263652-70.522435 374.739478-84.591305 36.285217-2.003478 68.385391-2.849391 96.790261-2.849391 148.346435 0 197.36487 23.373913 230.711652 23.373913 5.698783 0 10.952348-0.667826 16.161391-2.31513 41.449739-12.822261 76.399304-32.055652 178.220522-33.391305l20.034783-0.133565c72.481391 0 135.613217 4.763826 135.613217 4.763826s-15.582609 71.546435-40.870956 125.017044c-25.288348 53.426087-36.018087 65.26887-42.251131 80.094608z m-72.125217-177.552695c-78.803478 0.979478-113.263304 12.911304-146.565566 24.486956-7.257043 2.493217-14.781217 5.075478-22.528 7.479652a85.704348 85.704348 0 0 1-25.689043 3.739827c-13.846261 0-28.048696-2.760348-45.990957-6.322087-34.726957-6.811826-87.173565-17.096348-184.765217-17.096348-29.384348 0-61.350957 0.979478-94.920348 2.849391-168.514783 9.527652-258.982957 45.278609-313.032348 66.649044-27.38087 10.818783-45.456696 17.986783-63.488 17.986782-3.250087 0-6.500174-0.26713-9.572173-0.756869a40.648348 40.648348 0 0 0-6.188522-0.356174c-28.493913 0-85.659826 14.380522-121.544348 26.980174 8.770783 12.599652 20.079304 27.603478 27.603478 37.531826 25.466435 33.747478 31.788522 42.117565 31.610435 56.052869 0.044522 2.582261 0.890435 11.842783 1.602783 20.034783 2.448696 28.271304 6.188522 70.92313 5.342608 99.194435a288.411826 288.411826 0 0 0 24.264348 126.753391c77.690435-58.145391 271.582609-171.052522 584.570435-152.175304 193.224348 11.664696 315.570087 46.213565 388.763826 80.050087 15.671652-55.296 12.332522-130.270609 10.418087-173.189566-1.469217-32.01113-2.003478-43.942957 2.582261-54.850782 3.250087-7.702261 7.034435-14.157913 11.798261-22.349913 6.856348-11.664696 16.205913-27.648 31.031652-59.035826 12.377043-26.178783 22.438957-57.566609 29.161739-81.38574a1996.354783 1996.354783 0 0 0-114.42087-2.270608zM619.609043 859.759304c69.89913 0 145.274435-20.257391 183.607653-40.292174 24.086261-12.599652 60.905739-43.675826 93.362087-71.101217 20.257391-17.096348 39.357217-33.213217 54.895304-44.521739 8.993391-6.544696 16.11687-10.99687 22.438956-14.06887 8.370087-4.096 17.14087-7.746783 26.401392-11.620174 10.418087-4.36313 21.014261-8.770783 31.387826-13.890782-80.940522-33.970087-214.149565-79.471304-243.400348-88.731826-11.486609-3.650783-43.008-9.794783-88.153043-9.794783-39.624348 0-99.995826 4.897391-162.059131 28.493913-44.566261 16.962783-103.201391 31.031652-159.877565 44.655305-35.617391 8.548174-71.902609 17.229913-102.088348 26.178782 18.788174 12.688696 39.401739 27.247304 59.302957 42.74087 8.45913 6.589217 18.075826 14.425043 29.161739 23.552 6.366609 5.209043 13.133913 10.774261 20.257391 16.473043C441.744696 793.956174 514.582261 847.916522 573.350957 856.598261a318.508522 318.508522 0 0 0 46.258086 3.205565z"  horiz-adv-x="1246" />

    
    <glyph glyph-name="ren2" unicode="&#58928;" d="M694.044444 343.04c70.769778 61.44 121.344 143.36 121.344 245.76C815.388444 762.88 683.975111 896 512 896 340.081778 896 208.611556 762.88 208.611556 588.8c0-102.4 50.574222-184.32 121.344-245.76A461.198222 461.198222 0 0 1 56.888889-76.8c0-30.72 20.252444-51.2 50.574222-51.2s50.574222 20.48 50.574222 51.2c0 194.56 161.792 358.4 353.962667 358.4 192.170667 0 353.962667-163.84 353.962667-358.4 0-30.72 20.252444-51.2 50.631111-51.2 30.264889 0 50.517333 20.48 50.517333 51.2 0 184.32-111.274667 348.16-273.066667 419.84zM512 384C400.725333 384 309.703111 476.16 309.703111 588.8S400.725333 793.6 512 793.6s202.296889-92.16 202.296889-204.8S623.274667 384 512 384z"  horiz-adv-x="1024" />

    
    <glyph glyph-name="shanchu-copy-copy-copy" unicode="&#58881;" d="M764.42168889 45.48479999999995c0-30.23530667-24.61013333-54.84430222-54.84316444-54.84430222H314.42147555c-30.23416889 0-54.84316445 24.61013333-54.84316444 54.84430222V627.6720355499999h504.84337778v-582.18723555zM369.26577778 726.10915555c0 6.32832 4.92202667 11.25034667 11.25034667 11.25034667H644.18702222c6.32832 0 11.25034667-4.92202667 11.25034667-11.25034667v-33.04675555H369.26577778V726.10915555z m559.68768-33.04675555H720.82773333V726.10915555c0 42.1888-34.45191111 76.64071111-76.64071111 76.64071112H380.51612445c-42.1888 0-76.64071111-34.45191111-76.64071112-76.64071112v-33.04675555h-208.82773333c-18.28181333 0-33.04789333-14.76608-33.04789333-33.04675554s14.76608-33.04675555 33.04675555-33.04675557h98.43825778v-581.48408889c0-66.79779555 54.14001778-120.93781333 120.93667555-120.93781333h395.1570489c66.79665778 0 120.93667555 54.14001778 120.93667555 120.93781333V627.6720355499999h98.43825778c18.28067555 0 33.04675555 14.76494222 33.04675555 33.04675556s-14.76608 32.34360889-33.04675555 32.34360889zM512 89.78076444999999c18.28181333 0 33.04675555 14.76608 33.04675555 33.04789333v351.56195555c0 18.28181333-14.76494222 33.04675555-33.04675555 33.04675556s-33.04675555-14.76494222-33.04675555-33.04675556v-351.56195555c0-18.28181333 14.76494222-33.04789333 33.04675555-33.04789333m-153.98456889 0c18.28181333 0 33.04675555 14.76608 33.04675556 33.04789333v351.56195555c0 18.28181333-14.76494222 33.04675555-33.04675556 33.04675556s-33.04675555-14.76494222-33.04675556-33.04675556v-351.56195555c0.70314667-18.28181333 15.46922667-33.04789333 33.04675556-33.04789333m307.96913778 0c18.28067555 0 33.04675555 14.76608 33.04675556 33.04789333v351.56195555c0 18.28181333-14.76608 33.04675555-33.04675556 33.04675556s-33.04675555-14.76494222-33.04675556-33.04675556v-351.56195555c0-18.28181333 14.76494222-33.04789333 33.04675556-33.04789333"  horiz-adv-x="1024" />

    


  </font>
</defs>
</svg>
